<svg width="600" height="750" viewBox="0 0 600 750" fill="none" xmlns="http://www.w3.org/2000/svg">
<rect width="600" height="750" rx="20" fill="#D1DADB"/>
<path d="M299.995 167.721C299.995 155.065 305.018 142.927 313.959 133.977C322.9 125.028 335.027 120 347.671 120C360.316 120 372.443 125.028 381.384 133.977C390.325 142.927 395.348 155.065 395.348 167.721C395.348 180.377 390.325 192.516 381.384 201.465C372.443 210.414 360.316 215.442 347.671 215.442C335.027 215.442 322.9 210.414 313.959 201.465C305.018 192.516 299.995 180.377 299.995 167.721ZM266.721 318.142C265.728 318.54 264.834 318.937 263.841 319.335L255.895 322.815C239.605 330.072 227.09 343.891 221.429 360.793L218.846 368.547C213.284 385.25 195.306 394.197 178.62 388.63C161.933 383.062 152.994 365.068 158.556 348.365L161.138 340.611C172.461 306.709 197.491 279.07 230.07 264.555L238.016 261.075C258.676 251.929 281.024 247.157 303.67 247.157C347.969 247.157 387.898 273.801 404.883 314.662L420.179 351.348L441.435 361.986C457.128 369.84 463.485 388.928 455.638 404.636C447.792 420.345 428.721 426.707 413.028 418.853L386.408 405.631C376.178 400.461 368.132 391.911 363.762 381.273L354.227 358.407L335.057 423.526L384.223 477.212C389.587 483.078 393.361 490.137 395.348 497.891L418.193 589.456C422.464 606.457 412.134 623.756 395.05 628.031C377.966 632.306 360.782 621.966 356.511 604.866L334.66 517.278L264.437 440.626C249.737 424.62 244.274 402.25 249.836 381.273L266.622 318.142H266.721ZM209.311 515.687L234.142 453.65C236.228 456.632 238.612 459.416 241.095 462.2L281.521 506.342L267.118 542.332C264.735 548.297 261.159 553.765 256.59 558.338L195.306 619.679C182.891 632.107 162.727 632.107 150.312 619.679C137.896 607.252 137.896 587.07 150.312 574.643L209.311 515.687Z" fill="#30393B"/>
</svg>
