<svg width="600" height="750" viewBox="0 0 600 750" fill="none" xmlns="http://www.w3.org/2000/svg">
<rect width="600" height="750" rx="20" fill="#D1DADB"/>
<path d="M217.021 175.371C222.56 173.051 228.847 173.725 233.861 177.018L299.575 220.574L365.288 177.018C370.303 173.725 376.59 173.126 382.128 175.371C387.667 177.616 391.559 182.556 392.756 188.393L408.399 265.626L485.638 281.268C491.476 282.465 496.416 286.506 498.661 291.969C500.906 297.433 500.308 303.794 497.015 308.808L453.455 374.516L497.015 440.224C500.308 445.239 500.906 451.525 498.661 457.063C496.416 462.601 491.476 466.642 485.638 467.765L408.324 483.331L392.756 560.639C391.559 566.477 387.517 571.416 382.053 573.661C376.59 575.906 370.228 575.308 365.213 572.015L299.5 528.459L233.787 572.015C228.772 575.308 222.485 575.906 216.947 573.661C211.408 571.416 207.366 566.477 206.244 560.639L190.676 483.331L113.362 467.69C107.524 466.493 102.584 462.451 100.339 456.988C98.0935 451.525 98.6922 445.164 101.985 440.15L145.545 374.516L101.985 308.808C98.6922 303.794 98.0935 297.507 100.339 291.969C102.584 286.431 107.524 282.39 113.362 281.268L190.676 265.701L206.319 188.393C207.516 182.556 211.558 177.616 217.021 175.371ZM239.026 374.516C239.026 341.288 265.97 314.346 299.201 314.346C332.432 314.346 359.376 341.288 359.376 374.516C359.376 407.744 332.432 434.686 299.201 434.686C265.97 434.686 239.026 407.744 239.026 374.516ZM395.301 374.516C395.301 321.456 352.265 278.424 299.201 278.424C246.136 278.424 203.1 321.456 203.1 374.516C203.1 427.577 246.136 470.609 299.201 470.609C352.265 470.609 395.301 427.577 395.301 374.516Z" fill="#30393B"/>
</svg>
