<svg width="600" height="750" viewBox="0 0 600 750" fill="none" xmlns="http://www.w3.org/2000/svg">
<rect width="600" height="750" rx="20" fill="#D1DADB"/>
<path d="M372.633 174.804C365.346 183.612 351.252 203.871 351.252 227.653C351.252 259.682 363.504 271.933 383.283 291.711C403.062 311.489 415.314 323.741 447.345 323.741C471.127 323.741 491.387 309.648 500.195 302.361C503.398 299.719 505 295.795 505 291.711C505 287.628 503.398 283.704 500.195 281.142C491.067 273.855 469.526 259.682 440.938 259.682C415.314 259.682 408.908 266.088 408.908 266.088C408.908 266.088 415.314 259.682 415.314 234.059C415.314 205.472 401.14 183.933 393.853 174.804C391.291 171.601 387.367 170 383.283 170C379.199 170 375.275 171.601 372.633 174.804ZM290.874 278.9C258.843 278.9 229.135 293.393 209.436 317.495L257.882 365.939C262.847 370.904 262.847 379.071 257.882 384.036C252.918 389 244.75 389 239.785 384.036L195.502 339.755V339.835L96.7673 552.67C93.4041 559.957 94.9256 568.604 100.611 574.37C106.297 580.135 114.945 581.576 122.312 578.213L230.176 528.248L188.456 486.529C183.491 481.565 183.491 473.397 188.456 468.433C193.42 463.468 201.588 463.468 206.553 468.433L254.919 516.717L335.157 479.563C372.312 462.347 396.175 425.113 396.175 384.116C396.095 325.983 349.01 278.9 290.874 278.9Z" fill="#30393B"/>
</svg>
