<svg width="600" height="750" viewBox="0 0 600 750" fill="none" xmlns="http://www.w3.org/2000/svg">
<rect width="600" height="750" rx="20" fill="#D1DADB"/>
<path d="M98 324.429C98 296.535 120.702 273.857 148.625 273.857C149.021 273.857 149.495 273.857 149.891 273.857C155.744 245.016 181.294 223.286 211.906 223.286C223.771 223.286 234.846 226.525 244.259 232.136C254.779 211.907 276.058 198 300.5 198C324.942 198 346.221 211.907 356.741 232.136C366.154 226.525 377.229 223.286 389.094 223.286C419.706 223.286 445.256 245.016 451.109 273.857C451.505 273.857 451.979 273.857 452.375 273.857C480.298 273.857 503 296.535 503 324.429C503 333.674 500.548 342.287 496.197 349.714H104.803C100.452 342.287 98 333.674 98 324.429ZM98 396.651C98 384.719 107.729 375 119.674 375H481.247C493.191 375 502.921 384.719 502.921 396.651C502.921 452.358 467.8 499.927 418.52 518.417L417.175 529.875C415.593 542.518 404.835 552 392.021 552H208.9C196.165 552 185.328 542.518 183.746 529.875L182.322 518.496C133.121 499.927 98 452.358 98 396.651Z" fill="#30393B"/>
</svg>
