<svg width="600" height="750" viewBox="0 0 600 750" fill="none" xmlns="http://www.w3.org/2000/svg">
<rect width="600" height="750" rx="20" fill="#D1DADB"/>
<path d="M223.456 382.259C223.456 388.966 220.727 395.358 215.909 400.092L194.393 421.239C184.518 430.945 168.3 430.234 154.732 426.92C151.039 425.973 147.185 425.5 143.171 425.5C116.597 425.5 95 446.726 95 472.844C95 498.962 116.597 520.188 143.171 520.188C148.229 520.188 152.805 524.685 152.805 529.656C152.805 555.774 174.402 577 200.976 577C227.551 577 249.147 555.774 249.147 529.656C249.147 525.711 248.666 521.923 247.702 518.215C244.33 504.88 243.527 488.941 253.483 479.235L274.999 458.088C279.816 453.354 286.319 450.671 293.144 450.671H364.758C369.816 450.671 374.713 450.434 379.611 449.882C389.165 448.935 392.778 437.652 388.282 429.366C381.457 416.899 377.604 402.696 377.604 387.546C377.604 338.703 417.827 299.171 467.523 299.171C473.946 299.171 480.128 299.802 486.149 301.065C495.543 303.037 505.498 296.409 503.812 287.177C492.01 222.316 434.205 173 364.758 173C286.721 173 223.456 235.178 223.456 311.875V382.259Z" fill="#30393B"/>
</svg>
